Coordinates
version=1
nRows=17
nColumns=36
inDegrees=yes

Units are S.I. units (second, meters, Newtons, ...)
If the header above contains a line with 'inDegrees', this indicates whether rotational values are in degrees (yes) or radians (no).

endheader
time	pelvis_tilt	pelvis_list	pelvis_rotation	pelvis_tx	pelvis_ty	pelvis_tz	hip_flexion_r	hip_adduction_r	hip_rotation_r	knee_angle_r	knee_angle_r_beta	ankle_angle_r	subtalar_angle_r	mtp_angle_r	hip_flexion_l	hip_adduction_l	hip_rotation_l	knee_angle_l	knee_angle_l_beta	ankle_angle_l	subtalar_angle_l	mtp_angle_l	lumbar_extension	lumbar_bending	lumbar_rotation	arm_flex_r	arm_add_r	arm_rot_r	elbow_flex_r	pro_sup_r	arm_flex_l	arm_add_l	arm_rot_l	elbow_flex_l	pro_sup_l
      1.96666670	     -4.26619537	      3.05299881	     -2.29700477	     -0.05915794	      1.23993045	     -0.02232392	      2.16052162	     -0.34660298	      4.25410404	      0.14485577	      0.00252821	      9.46128382	     -7.02273022	     -7.49999987	      0.41462907	     -0.73832788	     -5.48290060	      0.20240292	      0.00353260	      7.22915382	      1.56245731	     -7.49999987	      3.40439036	      1.42816699	      0.08193040	      6.20350342	     -6.49489654	     33.82204756	     22.48758368	     65.16821677	      4.70355406	     -6.80293063	     34.86034094	     25.66380347	     64.58911012
      1.98333330	     -4.30763194	      3.04190496	     -2.25323185	     -0.06068814	      1.23858991	     -0.02180495	      2.21059070	     -0.34154884	      3.95585069	      0.14467122	      0.00252499	      9.56508028	     -6.60890894	     -7.49999987	      0.48834456	     -0.74904586	     -5.32982236	      0.19960915	      0.00348384	      7.09923532	      1.29414033	     -7.49999987	      3.48943036	      1.44005130	     -0.11028883	      6.19737168	     -6.40165032	     33.48342927	     22.46919253	     64.54510517	      4.60498605	     -6.76447508	     34.56434087	     25.58641659	     64.05073357
      2.00000000	     -4.34525057	      3.04139911	     -2.24447844	     -0.05835403	      1.23809562	     -0.02086074	      2.18974018	     -0.31932780	      3.95927073	      0.14493182	      0.00252954	      9.57461666	     -6.62335873	     -7.49999987	      0.50544213	     -0.77832642	     -5.33455218	      0.21444873	      0.00374284	      7.11602859	      1.29931621	     -7.49999987	      3.45397181	      1.43444063	     -0.10444246	      6.17212044	     -6.39931739	     33.48949065	     22.46278556	     64.55026232	      4.58713360	     -6.77304459	     34.56836884	     25.58252753	     64.05491749
      2.01666670	     -4.17293968	      2.95789471	     -2.28685502	     -0.06395839	      1.24042477	     -0.01954353	      1.98135558	     -0.13775615	      4.49563582	      0.14827829	      0.00258794	      9.30344425	     -7.25609758	     -7.49999987	      0.24717486	     -0.92200858	     -5.41400192	      0.20400354	      0.00356053	      7.27512984	      1.63584595	     -7.49999987	      3.26824605	      1.44681269	     -0.00083448	      6.17346252	     -6.40233797	     33.88072303	     22.44656142	     64.79784594	      4.67291950	     -6.94611084	     34.92929648	     25.71859399	     64.28002556
      2.03333330	     -4.14183789	      2.91456276	     -2.26268309	     -0.06405170	      1.24062669	     -0.01993779	      1.93588621	     -0.00726961	      4.56829670	      0.14972628	      0.00261322	      9.31270321	     -7.10722747	     -7.49999987	      0.18481744	     -1.01847129	     -5.40619030	      0.21126038	      0.00368719	      7.23879875	      1.92657500	     -7.49999987	      3.21640774	      1.46845402	     -0.06573081	      6.27253481	     -6.35150619	     34.04904664	     22.26442804	     65.23154451	      4.72910080	     -6.97855449	     35.03875175	     25.58366977	     64.69552475
      2.05000000	     -4.12898095	      2.88416636	     -2.30951889	     -0.06364684	      1.23798170	     -0.02100892	      1.93035716	      0.07849292	      4.78347416	      0.15420143	      0.00269132	      9.25319116	     -7.18403011	     -7.49999987	      0.13277487	     -1.07609594	     -5.31579066	      0.21771021	      0.00379976	      7.19163991	      1.89978483	     -7.49999987	      3.17130368	      1.48183340	     -0.06225666	      6.28833152	     -6.35800741	     34.15460194	     22.29294579	     65.03093330	      4.74136367	     -7.01186845	     34.97486445	     25.68797573	     64.53096501
      2.06666670	     -4.06566638	      2.83644203	     -2.29666878	     -0.06329641	      1.23775084	     -0.02110453	      1.85511140	      0.15651655	      4.97527517	      0.15783451	      0.00275473	      9.10712171	     -7.36605627	     -7.49999987	      0.03225533	     -1.13587014	     -5.02739147	      0.22635715	      0.00395068	      7.07721463	      1.55404533	     -7.49999987	      3.04499900	      1.51811443	     -0.16796717	      6.37723290	     -6.36331689	     34.28899257	     22.27035516	     65.69293442	      4.76198158	     -7.07183975	     35.01540070	     25.80677795	     65.19372284
      2.08333330	     -4.11539034	      2.78957507	     -2.25274251	     -0.06343354	      1.23897776	     -0.02119914	      1.88279976	      0.22546644	      4.63281160	      0.16447854	      0.00287069	      9.33457002	     -6.52049997	     -7.49999987	      0.06511553	     -1.19392257	     -5.00977168	      0.23468118	      0.00409596	      7.13876959	      1.74245777	     -7.49999987	      3.10163538	      1.54835448	     -0.29902854	      6.43307557	     -6.23761106	     33.95269940	     21.93749746	     64.84566569	      4.73169415	     -6.95030778	     34.61912907	     25.57948986	     64.41947373
      2.10000000	     -3.97552722	      2.74992101	     -2.26316712	     -0.06319201	      1.24260306	     -0.02057901	      1.68973927	      0.28138876	      4.82473873	      0.16571836	      0.00289233	      9.02467437	     -6.84945325	     -7.49999987	     -0.03835599	     -1.25820506	     -4.97433434	      0.23594110	      0.00411795	      7.04124494	      1.67686847	     -7.49999987	      2.76116334	      1.56653784	     -0.28034579	      6.44119050	     -6.24071151	     34.02160246	     22.09813052	     64.79922215	      4.81005924	     -6.99497451	     34.62918977	     25.77427062	     64.39071724
      2.11666670	     -3.97389682	      2.74507451	     -2.21000562	     -0.06250393	      1.24410310	     -0.01956043	      1.71753360	      0.27058093	      4.46437490	      0.16959841	      0.00296005	      9.09766715	     -6.41615426	     -7.49999987	     -0.00817924	     -1.27745894	     -4.81542148	      0.24110384	      0.00420806	      6.88848390	      1.43971360	     -7.49999987	      2.69290701	      1.54880085	     -0.33794930	      6.46994720	     -6.13030941	     34.01602810	     21.75773808	     64.78821888	      4.81682449	     -7.01152006	     34.57653537	     25.64537604	     64.40640674
      2.13333330	     -4.05126847	      2.72172323	     -2.23688185	     -0.06411773	      1.24189631	     -0.02088802	      1.82398356	      0.28248553	      4.83384675	      0.16844792	      0.00293997	      8.70328372	     -7.17319359	     -7.49999987	      0.15281027	     -1.30697612	     -4.77111254	      0.24540660	      0.00428315	      6.77342920	      1.34787148	     -7.49999987	      2.61865713	      1.52242873	     -0.26086113	      6.44027148	     -6.20501659	     34.27193409	     22.01883114	     64.95818283	      4.88870924	     -7.15574266	     34.86118410	     25.96420911	     64.62851495
      2.15000000	     -4.01671427	      2.74238099	     -2.16054884	     -0.06562424	      1.24054406	     -0.02106325	      1.83357889	      0.23827089	      4.76101334	      0.16942702	      0.00295706	      8.56442819	     -7.33043697	     -7.49999987	      0.20287794	     -1.27553587	     -4.57019267	      0.25069349	      0.00437543	      6.77549239	      1.10636870	     -7.49999987	      2.34320272	      1.44670580	     -0.32821447	      6.48886559	     -6.24065685	     34.46355548	     22.12120149	     65.17043145	      4.95794216	     -7.28916326	     35.15958457	     26.13536423	     64.98025543
      2.16666670	     -4.11037600	      2.75302696	     -2.08069026	     -0.06515612	      1.23996798	     -0.02163457	      1.98448247	      0.20344628	      4.63294443	      0.16988752	      0.00296510	      8.51775489	     -7.33829410	     -7.49999987	      0.38150416	     -1.25742795	     -4.40583872	      0.25698432	      0.00448522	      6.73196892	      1.01844252	     -7.49999987	      2.30871292	      1.40445779	     -0.37768287	      6.48948632	     -6.18623632	     34.23700458	     22.03881636	     65.13845801	      5.01645925	     -7.32595970	     35.02168713	     26.07430640	     65.05741676
      2.18333330	     -4.53493461	      2.75139797	     -1.79175713	     -0.05670504	      1.23228918	     -0.02464052	      2.38853514	      0.12662811	      3.85595865	      0.16844501	      0.00293992	      8.89388096	     -6.56034417	     -7.49999987	      0.87961330	     -1.20022516	     -3.96090486	      0.26395429	      0.00460687	      7.01446936	      0.88019139	     -7.49999987	      3.05842997	      1.40845784	     -0.52513497	      5.88816591	     -6.37891731	     34.18181688	     22.58074026	     65.02065093	      4.50899920	     -7.39480118	     34.98040651	     26.56322243	     64.96449237
      2.20000000	     -4.21842276	      2.75395567	     -1.91640994	     -0.05607611	      1.23617791	     -0.02327586	      2.07192057	      0.06763540	      4.36976986	      0.16979580	      0.00296350	      8.65349045	     -7.37246012	     -7.49999987	      0.49301659	     -1.18163560	     -4.37102225	      0.25765204	      0.00449688	      7.22937361	      1.22020218	     -7.49999987	      2.55626485	      1.38358629	     -0.50643690	      6.03353412	     -6.29683557	     34.07886126	     22.29837890	     64.94572588	      4.46268761	     -7.41551202	     34.81738233	     26.34810843	     64.94568878
      2.21666670	     -4.22408430	      2.74938382	     -1.80323284	     -0.05770177	      1.23841122	     -0.02363957	      2.01877513	      0.00602293	      4.26599781	      0.16973373	      0.00296241	      8.71392248	     -7.37808649	     -7.49999987	      0.45617972	     -1.17201624	     -4.09468344	      0.25723925	      0.00448967	      7.25621055	      0.94062155	     -7.49999987	      2.62346190	      1.36111229	     -0.62059654	      5.87123748	     -6.34782718	     33.95787037	     22.30020692	     64.71473738	      4.18767188	     -7.47247629	     34.58092715	     26.27607239	     64.73405909
      2.23333330	     -4.40932916	      2.78140646	     -1.79107384	     -0.05927994	      1.24172996	     -0.02447834	      2.21303525	     -0.07702283	      4.03657315	      0.17070875	      0.00297943	      8.99499733	     -6.91686374	     -7.49999987	      0.59672414	     -1.11635955	     -4.19815595	      0.25172566	      0.00439344	      7.26364300	      1.01519088	     -7.49999987	      2.92082645	      1.30303146	     -0.65071721	      5.65907294	     -6.28690506	     33.85331355	     22.16597535	     64.39265068	      3.85788948	     -7.45202847	     34.33954496	     25.96176024	     64.43644424
